<svg width="155" height="61" viewBox="0 0 155 61" fill="none" xmlns="http://www.w3.org/2000/svg">
<rect width="155" height="61" fill="white"/>
<path d="M28.8854 15.0205V47.3506H19.6625V15.0205H28.8854ZM39.5479 14.8349V17.1542H9V14.8349H39.5479ZM39.5479 17.015V23.5553L39.098 23.5089V23.1842C39.098 21.3288 38.5881 19.8754 37.5683 18.824C36.5486 17.7417 35.1239 17.1851 33.2943 17.1542V17.015H39.5479ZM39.5479 14V15.3452L34.0592 14.8349C34.719 14.8349 35.4088 14.7885 36.1287 14.6958C36.8785 14.603 37.5683 14.4948 38.1982 14.3711C38.828 14.2474 39.2779 14.1237 39.5479 14ZM19.7975 43.9645V47.3506H16.1983V46.8868C16.1983 46.8868 16.2883 46.8868 16.4683 46.8868C16.6782 46.8868 16.7832 46.8868 16.7832 46.8868C17.563 46.8868 18.2228 46.6085 18.7627 46.0518C19.3326 45.4643 19.6325 44.7685 19.6625 43.9645H19.7975ZM28.7504 43.9645H28.8854C28.9154 44.7685 29.2003 45.4643 29.7402 46.0518C30.31 46.6085 30.9849 46.8868 31.7647 46.8868C31.7647 46.8868 31.8547 46.8868 32.0346 46.8868C32.2446 46.8868 32.3495 46.8868 32.3495 46.8868V47.3506H28.7504V43.9645ZM15.2535 17.015V17.1542C13.424 17.1851 11.9993 17.7417 10.9795 18.824C9.95978 19.8754 9.44989 21.3288 9.44989 23.1842V23.5089L9 23.5553V17.015H15.2535ZM9 14C9.29993 14.1237 9.74982 14.2474 10.3497 14.3711C10.9795 14.4948 11.6694 14.603 12.4192 14.6958C13.169 14.7885 13.8589 14.8349 14.4887 14.8349L9 15.3452V14Z" fill="black"/>
<path d="M48.4667 14.8813H54.8102C56.1599 14.8813 57.3746 15.0823 58.4544 15.4843C59.5641 15.8863 60.4939 16.4739 61.2437 17.2469C61.9935 17.9891 62.5634 18.9013 62.9533 19.9836C63.3732 21.035 63.5832 22.241 63.5832 23.6016C63.5832 25.0859 63.2382 26.5084 62.5484 27.869C61.8885 29.2297 60.9738 30.3429 59.804 31.2087C58.6643 32.0437 57.3746 32.4611 55.9349 32.4611C56.4448 32.6776 56.9997 33.126 57.5996 33.8063C58.1994 34.4557 58.7243 35.0896 59.1742 35.708C59.1742 35.708 59.3691 36.0173 59.759 36.6357C60.179 37.2233 60.6888 37.95 61.2887 38.8158C61.9185 39.6817 62.5484 40.5321 63.1782 41.367C63.8081 42.2019 64.348 42.8668 64.7979 43.3615C65.3977 44.0418 65.9976 44.6448 66.5974 45.1705C67.1973 45.6962 67.8422 46.1137 68.532 46.4229C69.2518 46.7322 70.0466 46.8868 70.9164 46.8868V47.3506H68.442C67.0623 47.3506 65.8626 47.1342 64.8429 46.7012C63.8531 46.2683 63.0133 45.7426 62.3234 45.1241C61.6336 44.4748 61.0487 43.8563 60.5689 43.2688C60.4789 43.1451 60.2239 42.7895 59.804 42.2019C59.4141 41.6144 58.9342 40.9186 58.3644 40.1146C57.8245 39.2797 57.2846 38.4602 56.7447 37.6562C56.2049 36.8522 55.74 36.1719 55.3501 35.6153C54.9602 35.0277 54.7352 34.6876 54.6752 34.5948C54.1054 33.8217 53.4755 33.1105 52.7857 32.4611C52.0958 31.8117 51.346 31.487 50.5362 31.487V31.0232C50.5362 31.0232 50.7611 31.0387 51.211 31.0696C51.6909 31.0696 52.2608 31.0541 52.9206 31.0232C53.7005 30.9923 54.5553 30.8686 55.485 30.6521C56.4148 30.4357 57.2846 29.9873 58.0944 29.307C58.9042 28.6266 59.5191 27.5907 59.939 26.1992C60.029 25.859 60.104 25.4416 60.164 24.9468C60.2239 24.4211 60.2389 23.9109 60.2089 23.4161C60.179 21.3133 59.6541 19.6435 58.6343 18.4066C57.6445 17.1387 56.3099 16.4584 54.6302 16.3656C53.7904 16.3038 52.9206 16.2883 52.0209 16.3192C51.1511 16.3192 50.4162 16.3192 49.8164 16.3192C49.2165 16.3192 48.9166 16.3192 48.9166 16.3192C48.9166 16.2883 48.8716 16.1646 48.7816 15.9482C48.7216 15.7008 48.6466 15.4688 48.5567 15.2524C48.4967 15.005 48.4667 14.8813 48.4667 14.8813ZM49.0515 14.8813V47.3506H46.1272V14.8813H49.0515ZM46.2622 43.9645V47.3506H42.663V46.8868C42.663 46.8868 42.753 46.8868 42.933 46.8868C43.1429 46.8868 43.2479 46.8868 43.2479 46.8868C44.0277 46.8868 44.6876 46.6085 45.2274 46.0518C45.7973 45.4643 46.0972 44.7685 46.1272 43.9645H46.2622ZM46.2622 18.2674H46.1272C46.0972 17.4634 45.7973 16.7831 45.2274 16.2265C44.6876 15.6389 44.0277 15.3452 43.2479 15.3452C43.2479 15.3452 43.1429 15.3452 42.933 15.3452C42.753 15.3452 42.663 15.3452 42.663 15.3452V14.8813H46.2622V18.2674ZM48.9166 43.9645H49.0515C49.0515 44.7685 49.3365 45.4643 49.9063 46.0518C50.4762 46.6085 51.1511 46.8868 51.9309 46.8868C51.9309 46.8868 52.0209 46.8868 52.2008 46.8868C52.3808 46.8868 52.4707 46.8868 52.4707 46.8868V47.3506H48.9166V43.9645Z" fill="black"/>
<path d="M78.1365 14.8813V47.3506H75.2122V14.8813H78.1365ZM75.3472 43.9645V47.3506H71.748V46.8868C71.748 46.8868 71.838 46.8868 72.018 46.8868C72.2279 46.8868 72.3329 46.8868 72.3329 46.8868C73.1127 46.8868 73.7726 46.6085 74.3124 46.0518C74.8823 45.4643 75.1822 44.7685 75.2122 43.9645H75.3472ZM75.3472 18.2674H75.2122C75.1822 17.4634 74.8823 16.7831 74.3124 16.2265C73.7726 15.6389 73.1127 15.3452 72.3329 15.3452C72.3329 15.3452 72.2279 15.3452 72.018 15.3452C71.838 15.3452 71.748 15.3452 71.748 15.3452V14.8813H75.3472V18.2674ZM78.0016 43.9645H78.1365C78.1665 44.7685 78.4515 45.4643 78.9913 46.0518C79.5612 46.6085 80.2361 46.8868 81.0159 46.8868C81.0159 46.8868 81.1059 46.8868 81.2858 46.8868C81.4658 46.8868 81.5707 46.8868 81.6007 46.8868V47.3506H78.0016V43.9645ZM78.0016 18.2674V14.8813H81.6007V15.3452C81.5707 15.3452 81.4658 15.3452 81.2858 15.3452C81.1059 15.3452 81.0159 15.3452 81.0159 15.3452C80.2361 15.3452 79.5612 15.6389 78.9913 16.2265C78.4515 16.7831 78.1665 17.4634 78.1365 18.2674H78.0016Z" fill="black"/>
<path d="M92.5283 14.8813V35.2906C92.5283 37.5171 92.9182 39.4807 93.698 41.1814C94.5078 42.8822 95.6325 44.2119 97.0722 45.1705C98.5119 46.0982 100.176 46.5621 102.066 46.5621C104.076 46.5621 105.83 46.1137 107.33 45.2169C108.829 44.3201 109.999 43.0832 110.839 41.5061C111.679 39.8981 112.099 38.0273 112.099 35.8936V14.8813H114.213V35.8936C114.213 38.3056 113.703 40.4238 112.684 42.2483C111.694 44.0418 110.284 45.4488 108.455 46.4693C106.625 47.4898 104.495 48 102.066 48C99.5766 48 97.3871 47.5052 95.4976 46.5157C93.638 45.4952 92.1833 44.0882 91.1336 42.2947C90.1138 40.4702 89.6039 38.352 89.6039 35.94V14.8813H92.5283ZM89.7389 14.8813V17.6644H89.6039C89.6039 16.9841 89.364 16.4275 88.8841 15.9945C88.4342 15.5616 87.8794 15.3452 87.2195 15.3452C87.2195 15.3452 87.0995 15.3452 86.8596 15.3452C86.6196 15.3452 86.4997 15.3452 86.4997 15.3452V14.8813H89.7389ZM95.6325 14.8813V15.3452C95.6325 15.3452 95.5126 15.3452 95.2726 15.3452C95.0327 15.3452 94.9127 15.3452 94.9127 15.3452C94.2529 15.3452 93.683 15.5616 93.2031 15.9945C92.7532 16.4275 92.5283 16.9841 92.5283 17.6644H92.4383V14.8813H95.6325ZM112.234 14.8813V17.6644H112.099C112.099 16.9841 111.859 16.4275 111.379 15.9945C110.929 15.5616 110.374 15.3452 109.714 15.3452C109.714 15.3452 109.594 15.3452 109.354 15.3452C109.114 15.3452 108.994 15.3452 108.994 15.3452V14.8813H112.234ZM117.317 14.8813V15.3452C117.317 15.3452 117.198 15.3452 116.958 15.3452C116.718 15.3452 116.598 15.3452 116.598 15.3452C115.938 15.3452 115.368 15.5616 114.888 15.9945C114.438 16.4275 114.213 16.9841 114.213 17.6644H114.123V14.8813H117.317Z" fill="black"/>
<path d="M130.866 14.2319C131.346 14.2319 131.856 14.2628 132.396 14.3247C132.966 14.3865 133.506 14.4793 134.016 14.603C134.555 14.6958 135.035 14.804 135.455 14.9277C135.905 15.0205 136.25 15.1287 136.49 15.2524V20.4011H136.085C136.085 18.9168 135.59 17.7572 134.6 16.9222C133.611 16.0564 132.411 15.6235 131.001 15.6235C129.352 15.6235 128.017 16.1646 126.997 17.2469C125.977 18.2983 125.468 19.5352 125.468 20.9577C125.468 21.5452 125.588 22.241 125.828 23.045C126.097 23.8181 126.577 24.5448 127.267 25.2251L136.13 33.6671C137.03 34.533 137.63 35.4607 137.93 36.4502C138.23 37.4397 138.38 38.3984 138.38 39.3261C138.38 41.8927 137.615 43.98 136.085 45.588C134.585 47.196 132.546 48 129.967 48C129.247 48 128.392 47.9227 127.402 47.7681C126.442 47.6135 125.498 47.3506 124.568 46.9795C123.668 46.5775 122.918 46.0673 122.318 45.4488C122.228 44.9541 122.183 44.3356 122.183 43.5935C122.183 42.8513 122.243 42.0782 122.363 41.2742C122.483 40.4393 122.648 39.6817 122.858 39.0014H123.263C123.113 40.5784 123.308 41.9545 123.848 43.1296C124.388 44.3047 125.168 45.2015 126.187 45.8199C127.237 46.4075 128.422 46.6703 129.742 46.6085C131.391 46.5157 132.801 45.9281 133.971 44.8458C135.17 43.7326 135.77 42.2483 135.77 40.3929C135.77 39.4961 135.62 38.6921 135.32 37.9809C135.02 37.2387 134.585 36.6048 134.016 36.0791L125.378 27.8226C124.478 26.9568 123.848 26.0136 123.488 24.9932C123.128 23.9418 122.948 22.9677 122.948 22.0709C122.948 20.7722 123.248 19.5198 123.848 18.3138C124.448 17.1078 125.333 16.1337 126.502 15.3915C127.702 14.6185 129.157 14.2319 130.866 14.2319ZM136.49 14.6958V15.6699H133.071V14.6958H136.49Z" fill="black"/>
<path d="M144.975 47.5362C144.406 47.5362 143.926 47.3352 143.536 46.9332C143.146 46.5312 142.951 46.0364 142.951 45.4488C142.951 44.8613 143.146 44.3665 143.536 43.9645C143.926 43.5625 144.406 43.3615 144.975 43.3615C145.545 43.3615 146.025 43.5625 146.415 43.9645C146.805 44.3665 147 44.8613 147 45.4488C147 46.0364 146.805 46.5312 146.415 46.9332C146.025 47.3352 145.545 47.5362 144.975 47.5362Z" fill="black"/>
</svg>
