<svg width="155" height="81" viewBox="0 0 155 81" fill="none" xmlns="http://www.w3.org/2000/svg">
<path d="M25.03 80.4998C23.2641 77.0755 21.6179 73.8955 19.979 70.7105C19.5076 69.797 19.0387 68.8787 18.5966 67.9505C18.3304 67.3937 18.3646 67.059 19.1608 67.0126C20.9438 66.9076 22.1186 65.7279 22.1479 64.1525C22.1772 62.5601 21.1245 61.4194 19.3147 61.1557C18.9019 61.0946 18.7798 60.9432 18.8067 60.5621C18.8702 59.7219 18.9386 58.8817 18.9679 58.0391C18.985 57.4749 19.4637 57.4187 19.7959 57.2868C20.4749 57.0206 20.6898 56.6078 20.6971 55.8727C20.7631 49.2219 20.873 42.5735 20.9682 35.9228C20.9878 34.6332 20.9804 34.6332 22.3116 34.6332C24.2777 34.6332 26.2463 34.6649 28.2125 34.6185C28.9037 34.6038 29.1064 34.7797 29.1138 35.4953C29.1822 42.2072 29.3067 48.919 29.38 55.6333C29.3898 56.4637 29.5046 57.0865 30.4132 57.3357C30.9578 57.4847 31.2021 57.8852 31.1459 58.469C31.1215 58.7157 31.163 58.9672 31.1776 59.2164C31.207 59.7464 31.3633 60.3081 31.2411 60.7991C31.0702 61.4805 30.3325 61.0702 29.8734 61.2753C28.5667 61.8566 27.7924 63.0681 27.9658 64.4896C28.1246 65.8012 29.2115 66.8417 30.6012 67.0102C31.7541 67.1519 31.8493 67.2715 31.3047 68.3413C29.6096 71.6777 27.8779 74.997 26.1609 78.3212C25.8214 78.9806 25.4794 79.6376 25.0349 80.4949L25.03 80.4998Z" fill="white"/>
<path d="M44.818 59.9222C44.608 58.7815 44.4834 57.8681 44.2636 56.9766C43.3818 53.3715 41.4377 50.5627 38.0329 48.9018C37.6494 48.7138 37.4711 48.4573 37.3881 48.069C36.4233 43.5578 35.4683 39.0441 34.4694 34.5403C34.3326 33.9272 34.5768 33.7831 35.0556 33.6463C36.6431 33.1896 38.2332 32.7426 39.7988 32.2175C40.4192 32.0099 40.6023 32.2077 40.7929 32.75C41.6819 35.2754 42.6394 37.7765 43.5064 40.3069C43.7726 41.0811 44.1903 41.5721 44.9377 41.8774C45.6045 42.1485 46.3445 43.8875 46.1662 44.5714C46.0881 44.8694 45.856 44.8156 45.6533 44.862C44.2636 45.1673 43.438 46.0906 43.5699 47.1872C43.7165 48.4134 44.647 49.1559 46.0978 49.1461C46.5057 49.1436 46.7451 49.1559 46.7182 49.6663C46.535 52.9416 46.1736 56.1852 45.1795 59.3311C45.1355 59.4703 45.0256 59.5875 44.818 59.9295V59.9222Z" fill="white"/>
<path d="M15.5707 34.9192C14.8233 38.2971 14.076 41.675 13.331 45.0529C13.3041 45.175 13.2675 45.2947 13.2553 45.4193C13.0428 47.4025 12.3125 48.8314 10.3952 49.972C7.29328 51.8185 6.03543 55.0498 5.49077 58.5352C5.44192 58.843 5.4126 59.1531 5.35887 59.4609C5.34421 59.5464 5.28315 59.6221 5.18057 59.8199C4.47715 58.5499 4.30373 57.2187 4.04972 55.9291C3.66381 53.9703 3.49774 51.9772 3.35607 49.9842C3.31455 49.4102 3.31211 49.0781 4.10102 49.1367C5.41749 49.2344 6.41157 48.3331 6.4995 47.1485C6.58254 46.025 5.76432 45.0554 4.46983 44.8844C3.88364 44.8087 3.88119 44.6011 3.96179 44.1126C4.14742 42.9768 4.29396 41.8704 5.69837 41.5724C6.15511 41.4747 6.27478 41.0522 6.414 40.6638C7.35434 38.0553 8.29469 35.4468 9.24725 32.8431C9.37181 32.5061 9.40112 32.0957 9.79191 31.9052C10.2999 31.6586 10.7518 32.0078 11.2159 32.0835C12.5665 32.3034 13.8708 32.743 15.1531 33.2266C16.1178 33.5905 16.2106 34.0741 15.5707 34.9192V34.9192Z" fill="white"/>
<path d="M13.1488 3.63132C15.2395 2.3759 17.3913 1.24749 19.78 0.661303C26.5285 -0.98979 32.5931 0.507429 38.1888 4.52037C39.6347 5.5584 40.4211 6.64773 40.111 8.44049C40.0279 8.92409 40.1158 9.43701 40.1232 9.93526C39.3978 10.3212 39.0265 9.68125 38.6015 9.34908C37.0261 8.11076 35.3946 6.97014 33.5701 6.12749C30.9078 4.8965 28.1308 4.11736 25.1754 4.10271C21.2553 4.08561 17.6917 5.29706 14.3627 7.2901C13.183 7.99596 12.079 8.81174 11.0239 9.69346C10.6966 9.96702 10.3766 10.3578 9.88326 10.0378C9.45094 9.75697 9.51201 9.24161 9.6268 8.89967C9.92478 8.0155 9.96874 7.17774 9.71228 6.27893C9.54375 5.6903 10.1764 5.54863 10.4988 5.24821C10.9066 4.95756 11.273 4.64249 11.676 4.36161C12.2011 4.07584 12.5309 3.89266 13.1464 3.62887L13.1488 3.63132Z" fill="white"/>
<path d="M50.0574 20.1448C49.6519 19.4121 49.3198 18.6354 48.9558 17.8782C48.9216 17.7903 48.929 17.6975 48.9192 17.6047C48.7433 15.9145 48.1987 15.6336 46.7161 16.4983C45.4265 17.2481 44.1222 17.9784 42.8204 18.7062C41.0887 19.6759 39.2496 20.4282 37.4788 21.3245C35.2806 21.9913 33.1312 22.8218 31.0063 23.2321C32.5646 21.6054 33.522 19.5733 33.4561 17.1919C33.3901 14.8643 32.6208 12.7784 31.336 11.7795C32.8284 12.7955 35.0192 14.2439 36.812 16.2027C37.5081 16.9623 38.0528 17.8465 38.8246 18.5353C39.2129 18.9407 39.5671 19.4072 40.2412 19.0335C42.498 17.7854 44.7353 16.508 46.9335 15.1574C47.3169 14.9204 47.549 14.5858 47.4171 14.1462C47.2315 13.5258 47.0336 12.881 46.3131 12.6392C45.8026 11.6842 45.236 10.7561 44.8037 9.76689C44.4862 9.04148 44.2224 9.12696 43.707 9.55439C42.8009 10.3042 41.8385 10.9857 40.9007 11.6964C40.4879 11.7843 40.1044 11.9065 39.7283 11.5083C38.3239 10.0233 36.6874 8.81922 34.9313 7.79339C29.6605 4.71591 24.1211 4.13217 18.3691 6.23511C15.6751 7.21942 13.2961 8.76793 11.1614 10.6901C10.1014 11.6427 9.82787 11.6183 8.65549 10.7829C7.75667 10.143 7.00928 9.23443 5.81493 9.08544C5.46566 9.19535 5.41193 9.52997 5.27027 9.79619C4.83307 10.6169 4.39587 11.4375 3.95868 12.2582C3.52636 12.7662 3.13313 13.2864 2.85469 13.9166C2.54205 14.6249 2.74722 15.0279 3.36028 15.3552C5.24828 16.3615 7.05569 17.5119 8.93393 18.5377C9.90766 19.0702 10.7731 18.957 11.5303 18.1982C12.9615 16.4934 14.5247 14.9204 16.1807 13.4379C17.1381 12.8639 18.0687 12.2582 18.9406 11.6549C18.457 12.0164 18.0613 12.5195 17.7536 13.1057C17.4947 13.5991 17.375 14.156 17.0551 14.6176C16.0463 17.7537 16.7815 20.5405 18.9504 23.193C16.0073 22.5531 13.4085 21.6152 10.8854 20.4575C10.5704 20.4135 10.309 20.2425 10.033 20.1058C7.61257 18.9114 5.22142 17.6657 2.94018 16.2149C2.01938 15.6288 1.60905 15.8877 1.56753 16.9868C1.27688 17.6047 1.00332 18.2324 0.690685 18.8381C-0.342469 20.8458 -0.342469 20.836 1.56019 22.0402C4.44228 23.8598 7.50023 25.3033 10.7438 26.3462C11.3398 26.5392 11.5156 26.7907 11.2494 27.3891C10.861 28.2684 10.5386 29.1745 10.1869 30.0685C10.1063 30.3518 10.3237 30.4251 10.502 30.5496C11.9528 31.573 13.6894 31.8075 15.3283 32.2911C16.061 32.506 16.2881 31.9663 16.3419 31.3434C16.3639 30.3982 16.7498 29.5189 16.8597 28.5908C16.9256 28.029 17.1967 27.9704 17.6901 28.0608C18.5474 28.2171 19.4169 28.3343 20.2864 28.3954C20.8702 28.4369 21.1071 28.6201 21.068 29.2429C21.0069 30.2077 21.0631 31.1798 21.0167 32.1446C20.9898 32.6917 21.195 32.848 21.7128 32.8431C23.9281 32.826 26.1458 32.8211 28.3611 32.8504C28.9571 32.8578 29.1036 32.633 29.0768 32.0786C29.0279 31.1138 29.0694 30.1418 29.0206 29.177C28.9962 28.6616 29.1647 28.4565 29.6825 28.4076C30.6131 28.3221 31.5437 28.1951 32.4645 28.0364C32.9529 27.9509 33.1264 28.1121 33.2118 28.581C33.3926 29.5629 33.6417 30.5301 33.8371 31.5095C33.925 31.954 34.1229 32.0615 34.5503 31.9247C36.1257 31.424 37.7035 30.9331 39.2935 30.4715C39.7844 30.3298 39.8724 30.1198 39.6819 29.6655C39.3937 28.9767 39.1885 28.2489 38.8832 27.5699C38.5559 26.8396 38.7195 26.5367 39.5133 26.2754C43.1746 25.0737 46.6135 23.3982 49.7887 21.1951C50.2454 20.8776 50.326 20.6284 50.0598 20.1424L50.0574 20.1448ZM25.0638 20.6675C23.2125 20.6846 21.6566 19.141 21.6517 17.2774C21.6469 15.4627 23.1612 13.9508 24.9955 13.9313C26.8981 13.9117 28.3709 15.3821 28.3709 17.2994C28.3709 19.1459 26.8932 20.648 25.0614 20.6651L25.0638 20.6675Z" fill="white"/>
<path d="M117.552 44.5722C116.843 45.1226 116.135 45.5285 115.426 45.7899C114.023 46.2989 112.251 46.5535 110.112 46.5535C108.236 46.5535 107.284 46.5947 107.256 46.6773V67.8518C107.256 68.3746 108.104 68.6498 109.799 68.6773C110.369 68.6773 111.154 68.6911 112.154 68.7186C113.266 68.8286 113.821 69.2345 113.821 69.9362C113.821 70.2251 113.668 70.6035 113.363 71.0713C109.598 70.9887 106.319 70.9475 103.526 70.9475C102.206 70.9475 100.796 71.1057 99.2953 71.4221C97.7253 71.7799 96.7736 71.9587 96.4401 71.9587C95.3286 71.9587 94.7729 71.2158 94.7729 69.7298L101.546 68.5741C101.81 68.3952 101.942 66.5516 101.942 63.0432L101.9 50.743C101.873 48.8305 101.761 47.551 101.567 46.9043C101.456 46.5328 101.199 46.3471 100.796 46.3471H99.2536C99.2119 46.3471 98.9202 46.3333 98.3783 46.3058H96.8778C94.3352 46.3058 92.8138 46.4572 92.3137 46.7599C91.8274 47.0625 91.5842 47.5991 91.5842 48.3696V49.9381C89.8614 49.9381 89 49.2226 89 47.7917C89 46.7186 89.2987 45.6592 89.8961 44.6135C90.7715 43.1001 92.6541 42.3433 95.544 42.3433C96.4193 42.3433 98.6909 42.4121 102.359 42.5497C106.027 42.7286 108.792 42.818 110.653 42.818C114.21 42.818 115.989 42.7011 115.989 42.4672C115.989 42.4121 115.891 42.2677 115.697 42.0338C115.433 41.621 115.301 41.2977 115.301 41.0638C115.301 40.8024 115.419 40.5616 115.655 40.3415C116.795 39.4472 117.635 39 118.177 39C118.747 39 119.198 39.2614 119.532 39.7842C119.796 40.1695 119.928 40.5822 119.928 41.0225C119.928 42.0957 119.136 43.2789 117.552 44.5722Z" fill="white"/>
<path d="M129.535 65.6435C129.021 67.0744 127.819 68.464 125.93 69.8124C124.054 71.1607 122.345 71.8349 120.803 71.8349H120.615C117.253 71.6973 114.836 70.1839 113.363 67.2946C112.96 66.5103 112.758 65.2927 112.758 63.6417C112.758 62.7473 112.821 61.6811 112.946 60.4428C113.127 58.434 114.245 56.8243 116.301 55.6135C117.371 54.9944 119.233 54.2858 121.887 53.4878C122.234 53.3777 122.581 53.3227 122.929 53.3227C124.638 53.3227 126.242 54.0725 127.743 55.5722C129.41 57.2508 130.244 59.3077 130.244 61.743C130.244 62.995 130.008 64.2952 129.535 65.6435ZM120.282 56.6041C120.185 56.6041 120.087 56.6316 119.99 56.6867C119.143 57.0169 118.476 57.6154 117.989 58.4822C117.503 59.2939 117.26 60.1814 117.26 61.1445C117.26 62.6304 117.642 63.9787 118.406 65.1895C119.42 66.7855 120.942 67.8518 122.97 68.3884C123.86 68.3884 124.436 67.9343 124.7 67.0263C124.853 66.4346 124.929 64.9212 124.929 62.4859C124.929 60.8487 124.353 59.4109 123.2 58.1726C122.199 57.127 121.227 56.6041 120.282 56.6041Z" fill="white"/>
<path d="M139.622 56.3565C139.83 56.1776 140.365 55.7924 141.227 55.2008C142.783 54.1551 143.839 53.6323 144.395 53.6323C144.77 53.6323 145.374 53.7836 146.208 54.0863C147.264 54.4303 147.861 54.8637 148 55.3865C147.68 56.0331 147.403 56.556 147.166 56.955C146.513 58.0832 145.999 58.6748 145.624 58.7298C145.055 58.7298 144.45 58.4959 143.811 58.0281C143.297 57.6291 142.894 57.409 142.602 57.3677C142.519 57.3815 142.033 57.6979 141.143 58.3171C140.324 58.9087 139.886 59.2045 139.83 59.2045V69.379C139.719 69.8193 139.136 70.3558 138.08 70.9887C136.954 71.6629 135.989 72 135.183 72C134.46 71.8624 134.099 70.4246 134.099 67.6867C134.099 66.8749 134.127 65.6229 134.183 63.9306C134.21 62.2383 134.224 61.0826 134.224 60.4634C134.224 59.6929 134.197 59.1288 134.141 58.7711C134.016 57.9456 133.495 57.3884 132.578 57.0994C131.73 56.8105 131.307 56.3634 131.307 55.758C131.362 55.3039 131.779 55.015 132.557 54.8912C132.863 54.8637 133.363 54.8086 134.058 54.7261C134.85 54.6298 135.787 54.4234 136.871 54.1069C137.635 53.9006 138.184 53.7974 138.517 53.7974C139.337 53.9762 139.747 54.4234 139.747 55.1388C139.747 55.2902 139.733 55.5172 139.705 55.8199C139.65 56.0813 139.622 56.2602 139.622 56.3565Z" fill="white"/>
<path d="M84.3888 39.0458C83.2229 39.0458 82.4479 38.9782 82.0639 38.8428C81.4466 38.5992 80.6922 37.8548 79.8007 36.6097C78.4839 34.5931 76.4196 31.6088 73.6078 27.6568C72.3459 26.0057 71.6189 25.1733 71.4269 25.1598C70.3433 25.4169 69.8015 26.4726 69.8015 28.3268C69.8015 32.7795 69.9318 35.3578 70.1925 36.0616C70.2748 36.1698 70.3708 36.3525 70.4805 36.6097C70.6314 36.8262 71.2075 36.9345 72.2087 36.9345C72.3871 36.9345 72.6477 36.921 72.9906 36.8939H73.6695C74.0947 36.8939 74.4239 36.9616 74.6571 37.0969C75.3841 37.5165 75.7475 37.9293 75.7475 38.3353C75.7475 39.0797 74.6502 39.4519 72.4556 39.4519C71.9344 39.4519 71.18 39.4248 70.1925 39.3707C69.2598 39.3436 68.6494 39.3301 68.3613 39.3301C66.7703 39.3301 65.1997 39.4451 63.6498 39.6752C62.045 39.8647 61.174 39.9594 61.0369 39.9594C60.2962 39.9594 59.8161 39.7361 59.5967 39.2895C59.4046 39.0052 59.3086 38.7481 59.3086 38.518C59.3086 37.4894 60.4882 36.9751 62.8474 36.9751C63.6018 36.9751 64.027 36.9819 64.123 36.9954C64.219 36.5623 64.267 34.2818 64.267 30.1539C64.267 22.859 64.2396 18.3318 64.1847 16.5724C64.1299 15.0971 64.0064 13.9197 63.8144 13.0399C63.6361 12.3091 63.4715 11.8692 63.3206 11.7204C62.0587 11.4768 60.8037 11.3549 59.5555 11.3549C59.1852 11.0166 59 10.6985 59 10.4008C59 9.46693 59.5967 9 60.79 9C61.1054 9 61.8255 9.12857 62.9503 9.38572C63.8693 9.60227 64.8157 9.71054 65.7895 9.71054C66.2147 9.71054 66.8594 9.65641 67.7235 9.54813C68.6425 9.46693 69.3215 9.42633 69.7604 9.42633H70.2953C70.5011 9.45339 70.6177 9.46693 70.6451 9.46693C70.7274 9.46693 70.9537 9.42633 71.324 9.34512C71.9001 9.22331 72.291 9.16241 72.4968 9.16241C73.1689 9.16241 73.6215 9.37219 73.8547 9.79175C74.1016 10.2248 74.225 10.57 74.225 10.8271C74.225 11.5715 73.649 11.9437 72.4968 11.9437C72.2773 11.9437 71.9207 11.9098 71.4269 11.8422C70.9468 11.8151 70.6039 11.8016 70.3982 11.8016C70.0964 11.8016 69.9387 11.8151 69.925 11.8422C69.7055 12.167 69.5958 12.7557 69.5958 13.6084C69.5958 13.7979 69.6095 14.434 69.6369 15.5167V19.7191C69.6369 21.8981 69.6781 22.9943 69.7604 23.0079C70.0759 23.0079 70.6657 22.5477 71.5298 21.6274C71.9138 21.262 72.2773 20.9439 72.6202 20.6732C73.8958 19.7123 75.9807 17.9731 78.8748 15.4558C80.1093 14.4001 81.7141 13.0738 83.6892 11.4768C83.7715 11.3955 83.847 11.3346 83.9156 11.294L84.1007 11.1519C85.0472 10.4076 85.7878 10.0354 86.3228 10.0354C87.0497 10.0354 87.5641 10.394 87.8658 11.1113C87.9893 11.4361 88.051 11.7136 88.051 11.9437C88.051 12.4715 87.7218 12.8843 87.0634 13.1821C86.7754 13.2903 86.2336 13.5001 85.4381 13.8114C84.3956 14.258 83.0514 15.2596 81.4055 16.816C80.8568 17.3438 80.3356 17.7972 79.8418 18.1762C79.4029 18.5281 78.4359 19.3401 76.9408 20.6123C76.5019 20.8695 76.0767 21.2146 75.6652 21.6477C75.6652 21.959 75.919 22.4462 76.4265 23.1094C76.8517 23.6237 77.4895 24.456 78.3399 25.6064C78.9571 26.5267 79.9996 28.0629 81.4672 30.2148C82.3313 31.4464 82.9966 32.3735 83.4629 32.9961C84.2585 34.0111 85.0129 34.8232 85.7261 35.4322C86.3571 35.9465 87.0566 36.3525 87.8247 36.6503C88.3733 36.8398 88.7368 37.0157 88.9151 37.1781C89.2032 37.4623 89.3952 38.0172 89.4912 38.8428C87.2829 38.9782 85.5821 39.0458 84.3888 39.0458Z" fill="white"/>
<path d="M96.075 18.1153C95.2109 17.7363 94.7788 17.3167 94.7788 16.8566C94.7788 16.6671 94.8954 16.3897 95.1286 16.0242C95.3206 15.6723 95.6635 14.9009 96.1573 13.7099C96.2396 13.4392 96.4042 13.1009 96.6511 12.6948C97.0489 12.2482 97.9953 11.9572 99.4904 11.8219C100.807 11.8219 101.465 12.2753 101.465 13.1821C101.465 14.0618 100.889 15.0701 99.7372 16.2069C98.5302 17.3573 97.3095 17.9935 96.075 18.1153ZM99.1817 34.8029C99.264 34.7217 99.4423 34.5999 99.7167 34.4375C100.375 34.0585 100.855 33.869 101.157 33.869C101.459 33.869 101.685 33.9435 101.836 34.0923C102.179 34.2954 102.35 34.5796 102.35 34.945C102.35 35.3645 102 35.8044 101.301 36.2646C100.972 36.4405 100.643 36.63 100.313 36.833C99.4904 37.4285 98.1873 38.2473 96.4042 39.2895C95.8693 39.6278 95.4715 39.797 95.2109 39.797C94.772 39.797 94.3879 39.5737 94.0587 39.127C93.949 38.9105 93.8941 35.8653 93.8941 29.9915V28.4486C93.8941 26.7298 93.757 25.6335 93.4826 25.1598C93.2495 24.7402 92.6048 24.3004 91.5487 23.8402C90.8354 23.5154 90.4788 23.1094 90.4788 22.6221C90.4788 22.3921 90.6091 22.0875 90.8697 21.7086C92.7214 21.2349 94.9503 20.7138 97.5564 20.1454C98.6948 20.1454 99.264 20.7071 99.264 21.8304C99.264 22.0199 99.2503 22.2838 99.2229 22.6221C99.1955 22.947 99.1817 23.1703 99.1817 23.2921V34.8029Z" fill="white"/>
<path d="M111.609 24.4492C111.814 24.2733 112.342 23.8943 113.193 23.3124C114.729 22.2838 115.772 21.7695 116.32 21.7695C116.691 21.7695 117.287 21.9184 118.11 22.2161C119.153 22.5545 119.742 22.9808 119.88 23.4951C119.564 24.1312 119.29 24.6455 119.057 25.038C118.412 26.1478 117.904 26.7298 117.534 26.7839C116.972 26.7839 116.375 26.5538 115.744 26.0936C115.237 25.7012 114.839 25.4846 114.551 25.444C114.468 25.4575 113.988 25.7688 113.111 26.3779C112.301 26.9598 111.869 27.2508 111.814 27.2508V37.2593C111.705 37.6924 111.129 38.2203 110.086 38.8428C108.975 39.506 108.022 39.8376 107.226 39.8376C106.513 39.7022 106.156 38.2879 106.156 35.5946C106.156 34.7961 106.184 33.5645 106.239 31.8998C106.266 30.2351 106.28 29.0982 106.28 28.4892C106.28 27.7313 106.252 27.1764 106.198 26.8245C106.074 26.0124 105.56 25.4643 104.655 25.1801C103.818 24.8959 103.399 24.456 103.399 23.8605C103.454 23.4139 103.866 23.1297 104.634 23.0079C104.936 22.9808 105.429 22.9267 106.115 22.8454C106.897 22.7507 107.823 22.5477 108.893 22.2364C109.647 22.0334 110.189 21.9319 110.518 21.9319C111.327 22.1078 111.732 22.5477 111.732 23.2515C111.732 23.4003 111.718 23.6237 111.691 23.9214C111.636 24.1786 111.609 24.3545 111.609 24.4492Z" fill="white"/>
<path d="M126.484 18.1153C125.62 17.7363 125.188 17.3167 125.188 16.8566C125.188 16.6671 125.304 16.3897 125.538 16.0242C125.73 15.6723 126.072 14.9009 126.566 13.7099C126.649 13.4392 126.813 13.1009 127.06 12.6948C127.458 12.2482 128.404 11.9572 129.899 11.8219C131.216 11.8219 131.874 12.2753 131.874 13.1821C131.874 14.0618 131.298 15.0701 130.146 16.2069C128.939 17.3573 127.718 17.9935 126.484 18.1153ZM129.591 34.8029C129.673 34.7217 129.851 34.5999 130.126 34.4375C130.784 34.0585 131.264 33.869 131.566 33.869C131.868 33.869 132.094 33.9435 132.245 34.0923C132.588 34.2954 132.759 34.5796 132.759 34.945C132.759 35.3645 132.409 35.8044 131.71 36.2646C131.381 36.4405 131.051 36.63 130.722 36.833C129.899 37.4285 128.596 38.2473 126.813 39.2895C126.278 39.6278 125.88 39.797 125.62 39.797C125.181 39.797 124.797 39.5737 124.468 39.127C124.358 38.9105 124.303 35.8653 124.303 29.9915V28.4486C124.303 26.7298 124.166 25.6335 123.892 25.1598C123.658 24.7402 123.014 24.3004 121.958 23.8402C121.244 23.5154 120.888 23.1094 120.888 22.6221C120.888 22.3921 121.018 22.0875 121.279 21.7086C123.13 21.2349 125.359 20.7138 127.965 20.1454C129.104 20.1454 129.673 20.7071 129.673 21.8304C129.673 22.0199 129.659 22.2838 129.632 22.6221C129.604 22.947 129.591 23.1703 129.591 23.2921V34.8029Z" fill="white"/>
<path d="M151.132 35.7164L151.79 35.1886C152.655 34.5254 153.306 34.1938 153.745 34.1938C154.335 34.1938 154.753 34.6134 155 35.4525C153.916 36.251 153.004 36.9007 152.264 37.4014C150.398 38.633 149.116 39.3165 148.416 39.4519C147.36 39.4519 146.832 39.0526 146.832 38.2541C146.832 38.0511 146.859 37.7669 146.914 37.4014C146.997 37.0631 147.038 36.8262 147.038 36.6909C147.093 35.7706 147.12 34.9382 147.12 34.1938C147.12 28.4148 146.201 25.5252 144.363 25.5252C143.965 25.5252 143.327 25.7756 142.45 26.2764C142.052 26.5064 141.812 26.7501 141.73 27.0072C141.606 27.3726 141.544 28.1982 141.544 29.484C141.544 29.5652 141.558 29.9035 141.586 30.499C141.613 31.1351 141.627 31.6833 141.627 32.1434C141.627 37.1375 139.967 39.7564 136.648 40C136.552 39.3233 136.504 38.5924 136.504 37.8075C136.504 37.415 136.517 36.6909 136.545 35.6352V33.1382C136.545 29.4298 136.264 27.2508 135.701 26.6012C135.345 26.1952 134.981 25.8771 134.611 25.647C134.076 25.3493 133.808 24.8756 133.808 24.2259C135.578 23.0079 136.84 22.3988 137.594 22.3988C138.294 22.5342 138.993 23.0079 139.693 23.8199L140.289 24.7741C140.838 24.4763 141.51 24.1177 142.306 23.6981C143.965 22.8048 145.193 22.3108 145.988 22.2161C149.939 22.2161 151.928 24.8079 151.955 29.9915C151.955 30.6953 151.838 31.8321 151.605 33.4021L151.132 35.7164Z" fill="white"/>
</svg>
